Results
version=1
nRows=4
nColumns=213
inDegrees=yes
endheader
time	platform_rx	platform_ry	platform_rz	platform_ty	pelvis_tilt	pelvis_list	pelvis_rotation	pelvis_tx	pelvis_ty	pelvis_tz	hip_flexion_r	hip_adduction_r	hip_rotation_r	knee_angle_r	knee_angle_r_beta	ankle_angle_r	subtalar_angle_r	mtp_angle_r	hip_flexion_l	hip_adduction_l	hip_rotation_l	knee_angle_l	knee_angle_l_beta	ankle_angle_l	subtalar_angle_l	mtp_angle_l	lumbar_extension	lumbar_bending	lumbar_rotation	arm_flex_r	arm_add_r	arm_rot_r	elbow_flex_r	pro_sup_r	wrist_flex_r	wrist_dev_r	arm_flex_l	arm_add_l	arm_rot_l	elbow_flex_l	pro_sup_l	wrist_flex_l	wrist_dev_l	platform_rx_u	platform_ry_u	platform_rz_u	platform_ty_u	pelvis_tilt_u	pelvis_list_u	pelvis_rotation_u	pelvis_tx_u	pelvis_ty_u	pelvis_tz_u	hip_flexion_r_u	hip_adduction_r_u	hip_rotation_r_u	knee_angle_r_u	knee_angle_r_beta_u	ankle_angle_r_u	subtalar_angle_r_u	mtp_angle_r_u	hip_flexion_l_u	hip_adduction_l_u	hip_rotation_l_u	knee_angle_l_u	knee_angle_l_beta_u	ankle_angle_l_u	subtalar_angle_l_u	mtp_angle_l_u	lumbar_extension_u	lumbar_bending_u	lumbar_rotation_u	arm_flex_r_u	arm_add_r_u	arm_rot_r_u	elbow_flex_r_u	pro_sup_r_u	wrist_flex_r_u	wrist_dev_r_u	arm_flex_l_u	arm_add_l_u	arm_rot_l_u	elbow_flex_l_u	pro_sup_l_u	wrist_flex_l_u	wrist_dev_l_u	addbrev_r.activation	addlong_r.activation	addlong_r.fiber_length	addmagDist_r.activation	addmagIsch_r.activation	addmagIsch_r.fiber_length	addmagMid_r.activation	addmagProx_r.activation	bflh_r.activation	bflh_r.fiber_length	bfsh_r.activation	edl_r.activation	edl_r.fiber_length	ehl_r.activation	ehl_r.fiber_length	fdl_r.activation	fdl_r.fiber_length	fhl_r.activation	fhl_r.fiber_length	gaslat_r.activation	gaslat_r.fiber_length	gasmed_r.activation	gasmed_r.fiber_length	glmax1_r.activation	glmax2_r.activation	glmax3_r.activation	glmed1_r.activation	glmed2_r.activation	glmed3_r.activation	glmin1_r.activation	glmin2_r.activation	glmin3_r.activation	glmin3_r.fiber_length	grac_r.activation	iliacus_r.activation	perbrev_r.activation	perbrev_r.fiber_length	perlong_r.activation	perlong_r.fiber_length	piri_r.activation	piri_r.fiber_length	psoas_r.activation	recfem_r.activation	recfem_r.fiber_length	sart_r.activation	semimem_r.activation	semimem_r.fiber_length	semiten_r.activation	semiten_r.fiber_length	soleus_r.activation	soleus_r.fiber_length	tfl_r.activation	tfl_r.fiber_length	tibant_r.activation	tibant_r.fiber_length	tibpost_r.activation	tibpost_r.fiber_length	vasint_r.activation	vasint_r.fiber_length	vaslat_r.activation	vaslat_r.fiber_length	vasmed_r.activation	vasmed_r.fiber_length	addbrev_l.activation	addlong_l.activation	addlong_l.fiber_length	addmagDist_l.activation	addmagIsch_l.activation	addmagIsch_l.fiber_length	addmagMid_l.activation	addmagProx_l.activation	bflh_l.activation	bflh_l.fiber_length	bfsh_l.activation	edl_l.activation	edl_l.fiber_length	ehl_l.activation	ehl_l.fiber_length	fdl_l.activation	fdl_l.fiber_length	fhl_l.activation	fhl_l.fiber_length	gaslat_l.activation	gaslat_l.fiber_length	gasmed_l.activation	gasmed_l.fiber_length	glmax1_l.activation	glmax2_l.activation	glmax3_l.activation	glmed1_l.activation	glmed2_l.activation	glmed3_l.activation	glmin1_l.activation	glmin2_l.activation	glmin3_l.activation	glmin3_l.fiber_length	grac_l.activation	iliacus_l.activation	perbrev_l.activation	perbrev_l.fiber_length	perlong_l.activation	perlong_l.fiber_length	piri_l.activation	piri_l.fiber_length	psoas_l.activation	recfem_l.activation	recfem_l.fiber_length	sart_l.activation	semimem_l.activation	semimem_l.fiber_length	semiten_l.activation	semiten_l.fiber_length	soleus_l.activation	soleus_l.fiber_length	tfl_l.activation	tfl_l.fiber_length	tibant_l.activation	tibant_l.fiber_length	tibpost_l.activation	tibpost_l.fiber_length	vasint_l.activation	vasint_l.fiber_length	vaslat_l.activation	vaslat_l.fiber_length	vasmed_l.activation	vasmed_l.fiber_length
      0.01289079	     20.00000000	      0.00000000	      0.00000000	      0.25000000	    -13.95172722	     -0.01556170	     -0.01261721	      0.06426215	      0.82188692	      0.00005519	     48.34178747	    -13.32007606	    -10.19133247	     55.74698608	     55.74698608	     10.57193336	     -2.11849944	      0.00000000	     48.33832767	    -13.41476080	    -10.14712511	     55.75621706	     55.75621706	     11.00831821	      0.00000000	     -0.00000000	     -1.63267564	      0.01395152	      0.01296760	     56.29563288	     -0.01298803	     89.87882723	      0.14626576	      0.09954488	      0.00000000	     -0.00000000	     56.29662030	     -0.01591829	     89.88083730	      0.14804667	      0.10000095	      0.00000000	      0.00000000	     -0.00000000	      0.00000000	      0.00000000	     -0.00000000	    207.79100778	     -1.79289279	     -1.33790353	      0.04763670	      0.28870360	      0.00646498	   -269.51835255	      0.06338618	    -30.92931363	   -131.73679776	   -131.73679776	  -1260.20692433	   -259.43889649	      0.00000000	   -269.83731150	    -11.02739966	    -25.72847736	   -130.78684236	   -130.78684236	  -1210.30554987	      0.00000000	     -0.00000000	   -250.90629826	      1.51803272	      1.44179108	     44.58726700	     -1.96714994	     -1.22593671	      5.94257956	     -0.76117856	      0.00000000	     -0.00000000	     44.72943342	     -2.38799527	     -0.95880014	      6.19850117	     -0.69569042	      0.00000000	     -0.00000000	      0.01000000	      0.01000000	      0.09656603	      0.01000000	      0.01000000	      0.17903591	      0.01000000	      0.01000000	      0.01000000	      0.10880256	      0.01000000	      0.01000000	      0.06165506	      0.01000000	      0.07069009	      0.01000000	      0.04705249	      0.01000000	      0.05436757	      0.01000000	      0.06103484	      0.01000000	      0.05271392	      0.01000000	      0.01000000	      0.01000000	      0.01000000	      0.01000000	      0.01000000	      0.01000000	      0.01000000	      0.01000000	      0.04127313	      0.01000000	      0.01000000	      0.01000000	      0.04873716	      0.01000000	      0.05502533	      0.01000000	      0.02559566	      0.01000000	      0.01000000	      0.06685967	      0.01000000	      0.01000000	      0.07283741	      0.01000000	      0.22091720	      0.01000000	      0.05434497	      0.01000000	      0.06469622	      0.01000000	      0.05828821	      0.01000000	      0.04110950	      0.01000000	      0.11900498	      0.01000000	      0.11697276	      0.01000000	      0.11521443	      0.01000000	      0.01000000	      0.09668656	      0.01000000	      0.01000000	      0.17908235	      0.01000000	      0.01000000	      0.01000000	      0.10881829	      0.01000000	      0.01000000	      0.06188752	      0.01000000	      0.07044625	      0.01000000	      0.04675378	      0.01000000	      0.05411650	      0.01000000	      0.06105981	      0.01000000	      0.05274953	      0.01000000	      0.01000000	      0.01000000	      0.01000000	      0.01000000	      0.01000000	      0.01000000	      0.01000000	      0.01000000	      0.04120518	      0.01000000	      0.01000000	      0.01000000	      0.04962741	      0.01000000	      0.05575884	      0.01000000	      0.02555474	      0.01000000	      0.01000000	      0.06684546	      0.01000000	      0.01000000	      0.07284526	      0.01000000	      0.22094031	      0.01000000	      0.05442446	      0.01000000	      0.06460090	      0.01000000	      0.05769410	      0.01000000	      0.04075642	      0.01000000	      0.11901005	      0.01000000	      0.11697755	      0.01000000	      0.11521897
      0.01350310	     20.00000000	      0.00000000	      0.00000000	      0.25000000	    -13.82150509	     -0.01665910	     -0.01343049	      0.06429231	      0.82206770	      0.00005915	     48.17256581	    -13.32002655	    -10.21077710	     55.66390305	     55.66390305	      9.79253958	     -2.27799593	      0.00000000	     48.16891362	    -13.42151034	    -10.16339129	     55.67370303	     55.67370303	     10.25940679	      0.00000000	     -0.00000000	     -1.78984416	      0.01487581	      0.01384815	     56.32352694	     -0.01421944	     89.87805556	      0.14998444	      0.09909330	      0.00000000	     -0.00000000	     56.32460285	     -0.01741157	     89.88023192	      0.15192462	      0.09959012	      0.00000000	      0.00000000	     -0.00000000	      0.00000000	      0.00000000	     -0.00000000	    217.55590574	     -1.79045330	     -1.31765707	      0.05089053	      0.30175864	      0.00647650	   -283.22840399	      0.09950680	    -32.58508516	   -139.65446580	   -139.65446580	  -1285.04626245	   -261.37090845	      0.00000000	   -283.53766088	    -11.01131202	    -27.40901067	   -138.74743475	   -138.74743475	  -1235.42380466	     -0.00000000	     -0.00000000	   -262.45176155	      1.49992485	      1.43355014	     46.52133725	     -2.05500307	     -1.29486799	      6.20361937	     -0.71186463	      0.00000000	      0.00000000	     46.66814989	     -2.48935055	     -1.01894078	      6.46782347	     -0.64428193	     -0.00000000	      0.00000000	      0.01000000	      0.01000000	      0.09663458	      0.01000000	      0.01000000	      0.17887417	      0.01000000	      0.01000000	      0.01000000	      0.10869698	      0.01000000	      0.01000000	      0.06209261	      0.01000000	      0.07121344	      0.01000000	      0.04703294	      0.01000000	      0.05428203	      0.01000000	      0.06084685	      0.01000000	      0.05256688	      0.01000000	      0.01000000	      0.01000000	      0.01000000	      0.01000000	      0.01000000	      0.01000000	      0.01000000	      0.01000000	      0.04123553	      0.01000000	      0.01000000	      0.01000000	      0.04860811	      0.01000000	      0.05487865	      0.01000000	      0.02555492	      0.01000000	      0.01000000	      0.06693874	      0.01000000	      0.01000000	      0.07276558	      0.01000000	      0.22081524	      0.01000000	      0.05398676	      0.01000000	      0.06484395	      0.01000000	      0.05888402	      0.01000000	      0.04107229	      0.01000000	      0.11895890	      0.01000000	      0.11692914	      0.01000000	      0.11517323	      0.01000000	      0.01000000	      0.09675476	      0.01000000	      0.01000000	      0.17892421	      0.01000000	      0.01000000	      0.01000000	      0.10871413	      0.01000000	      0.01000000	      0.06234594	      0.01000000	      0.07094788	      0.01000000	      0.04669995	      0.01000000	      0.05401141	      0.01000000	      0.06086997	      0.01000000	      0.05260003	      0.01000000	      0.01000000	      0.01000000	      0.01000000	      0.01000000	      0.01000000	      0.01000000	      0.01000000	      0.01000000	      0.04116243	      0.01000000	      0.01000000	      0.01000000	      0.04956792	      0.01000000	      0.05567365	      0.01000000	      0.02551114	      0.01000000	      0.01000000	      0.06692324	      0.01000000	      0.01000000	      0.07277421	      0.01000000	      0.22084031	      0.01000000	      0.05407356	      0.01000000	      0.06474103	      0.01000000	      0.05824416	      0.01000000	      0.04068370	      0.01000000	      0.11896433	      0.01000000	      0.11693428	      0.01000000	      0.11517809
      0.01411540	     20.00000000	      0.00000000	      0.00000000	      0.25000000	    -13.68530962	     -0.01775241	     -0.01422846	      0.06432449	      0.82225644	      0.00006311	     47.99492919	    -13.31995442	    -10.23123914	     55.57594796	     55.57594796	      8.99887591	     -2.43838001	      0.00000000	     47.99109130	    -13.42823404	    -10.18069680	     55.58628734	     55.58628734	      9.49597681	      0.00000000	     -0.00000000	     -1.95406713	      0.01578646	      0.01472083	     56.35259981	     -0.01550446	     89.87724113	      0.15386237	      0.09867555	      0.00000000	     -0.00000000	     56.35376701	     -0.01896660	     89.87958908	      0.15596681	      0.09921437	      0.00000000	      0.00000000	     -0.00000000	      0.00000000	      0.00000000	     -0.00000000	    227.30121100	     -1.77937655	     -1.28750935	      0.05421563	      0.31472998	      0.00645706	   -297.00337129	      0.13675649	    -34.25243494	   -147.64850319	   -147.64850319	  -1306.82532757	   -262.33822291	      0.00000000	   -297.30041161	    -10.94234897	    -29.12241501	   -146.79541143	   -146.79541143	  -1257.73600355	     -0.00000000	     -0.00000000	   -273.94764308	      1.47329136	      1.41566656	     48.43749975	     -2.14222080	     -1.36566208	      6.46269759	     -0.65066451	      0.00000000	     -0.00000000	     48.58884696	     -2.58971451	     -1.08114466	      6.73497812	     -0.58104750	     -0.00000000	     -0.00000000	      0.01000000	      0.01000000	      0.09670643	      0.01000000	      0.01000000	      0.17870410	      0.01000000	      0.01000000	      0.01000000	      0.10858609	      0.01000000	      0.01000000	      0.06253926	      0.01000000	      0.07174777	      0.01000000	      0.04701148	      0.01000000	      0.05419347	      0.01000000	      0.06067241	      0.01000000	      0.05242962	      0.01000000	      0.01000000	      0.01000000	      0.01000000	      0.01000000	      0.01000000	      0.01000000	      0.01000000	      0.01000000	      0.04119589	      0.01000000	      0.01000000	      0.01000000	      0.04847695	      0.01000000	      0.05472883	      0.01000000	      0.02551224	      0.01000000	      0.01000000	      0.06702152	      0.01000000	      0.01000000	      0.07269020	      0.01000000	      0.22070864	      0.01000000	      0.05361431	      0.01000000	      0.06499901	      0.01000000	      0.05949112	      0.01000000	      0.04103286	      0.01000000	      0.11890987	      0.01000000	      0.11688270	      0.01000000	      0.11512940	      0.01000000	      0.01000000	      0.09683761	      0.01000000	      0.01000000	      0.17875778	      0.01000000	      0.01000000	      0.01000000	      0.10860471	      0.01000000	      0.01000000	      0.06281401	      0.01000000	      0.07146001	      0.01000000	      0.04664323	      0.01000000	      0.05390423	      0.01000000	      0.06069390	      0.01000000	      0.05246063	      0.01000000	      0.01000000	      0.01000000	      0.01000000	      0.01000000	      0.01000000	      0.01000000	      0.01000000	      0.01000000	      0.04111766	      0.01000000	      0.01000000	      0.01000000	      0.04950632	      0.01000000	      0.05558560	      0.01000000	      0.02546580	      0.01000000	      0.01000000	      0.06700470	      0.01000000	      0.01000000	      0.07269965	      0.01000000	      0.22073571	      0.01000000	      0.05370868	      0.01000000	      0.06488846	      0.01000000	      0.05880533	      0.01000000	      0.04060791	      0.01000000	      0.11891565	      0.01000000	      0.11688817	      0.01000000	      0.11513457
      0.01498476	     20.00000000	      0.00000000	      0.00000000	      0.25000000	    -13.48170304	     -0.01928823	     -0.01532566	      0.06437371	      0.82253801	      0.00006870	     47.72819056	    -13.31980862	    -10.26204991	     55.44261641	     55.44261641	      7.85114367	     -2.66646683	      0.00000000	     47.72410246	    -13.43767626	    -10.20709349	     55.45365823	     55.45365823	      8.39044222	      0.00000000	     -0.00000000	     -2.19928791	      0.01704677	      0.01593715	     56.39588077	     -0.01742040	     89.87600914	      0.15963953	      0.09815499	      0.00000000	     -0.00000000	     56.39718217	     -0.02127917	     89.87860944	      0.16198536	      0.09875551	      0.00000000	      0.00000000	     -0.00000000	      0.00000000	      0.00000000	     -0.00000000	    241.09921452	     -1.75201691	     -1.23601345	      0.05905088	      0.33299718	      0.00639169	   -316.66233600	      0.20246970	    -36.63068987	   -159.10782391	   -159.10782391	  -1332.62613835	   -262.07489940	      0.00000000	   -316.94120682	    -10.76656838	    -31.61781282	   -158.34777526	   -158.34777526	  -1284.71748209	      0.00000000	     -0.00000000	   -290.17820476	      1.42439689	      1.38195462	     51.12664155	     -2.26543900	     -1.46912709	      6.82741396	     -0.54276129	      0.00000000	      0.00000000	     51.28389508	     -2.72998230	     -1.17339506	      7.11019531	     -0.47051697	     -0.00000000	      0.00000000	      0.01000000	      0.01000000	      0.09681522	      0.01000000	      0.01000000	      0.17844828	      0.01000000	      0.01000000	      0.01000000	      0.10841952	      0.01000000	      0.01000000	      0.06318682	      0.01000000	      0.07252252	      0.01000000	      0.04697754	      0.01000000	      0.05406300	      0.01000000	      0.06044480	      0.01000000	      0.05224884	      0.01000000	      0.01000000	      0.01000000	      0.01000000	      0.01000000	      0.01000000	      0.01000000	      0.01000000	      0.01000000	      0.04113610	      0.01000000	      0.01000000	      0.01000000	      0.04828799	      0.01000000	      0.05451169	      0.01000000	      0.02544856	      0.01000000	      0.01000000	      0.06714538	      0.01000000	      0.01000000	      0.07257719	      0.01000000	      0.22054929	      0.01000000	      0.05306166	      0.01000000	      0.06523174	      0.01000000	      0.06036939	      0.01000000	      0.04097311	      0.01000000	      0.11883516	      0.01000000	      0.11681185	      0.01000000	      0.11506262	      0.01000000	      0.01000000	      0.09695347	      0.01000000	      0.01000000	      0.17850712	      0.01000000	      0.01000000	      0.01000000	      0.10844028	      0.01000000	      0.01000000	      0.06349289	      0.01000000	      0.07220288	      0.01000000	      0.04655795	      0.01000000	      0.05374977	      0.01000000	      0.06046433	      0.01000000	      0.05227735	      0.01000000	      0.01000000	      0.01000000	      0.01000000	      0.01000000	      0.01000000	      0.01000000	      0.01000000	      0.01000000	      0.04105061	      0.01000000	      0.01000000	      0.01000000	      0.04941545	      0.01000000	      0.05545604	      0.01000000	      0.02539884	      0.01000000	      0.01000000	      0.06712663	      0.01000000	      0.01000000	      0.07258784	      0.01000000	      0.22057929	      0.01000000	      0.05316710	      0.01000000	      0.06511034	      0.01000000	      0.05961850	      0.01000000	      0.04049526	      0.01000000	      0.11884140	      0.01000000	      0.11681776	      0.01000000	      0.11506819
